<svg xmlns="http://www.w3.org/2000/svg" width="33" height="35" fill="none" viewBox="0 0 33 35"><path fill="#689abf" d="M16.5 34.5c8.837 0 16-7.163 16-16s-7.163-16-16-16-16 7.163-16 16 7.163 16 16 16"/><path fill="#88c9f9" d="M16.5 32.5c8.837 0 16-7.163 16-16s-7.163-16-16-16-16 7.163-16 16 7.163 16 16 16"/><path fill="#5c913b" d="M27.282 21.61c-.904-.347-.743-.221-1.3-1.406s-.895-1.565-2.148-1.704c-1.255-.138-1.208-.04-1.556-.667s-1.762.17-2.667.52c-.907.348-.683 1.107-.962 1.036-.28-.07-.984-.25-1.683-.806-.697-.559.518-.994.867-1.342.35-.349-.657-.159-1.007-.37-.349-.207-.974.42-1.531-.14-.558-.557-.209-1.394-.278-2.09-.07-.698.905-.837 1.532-.977.627-.138 1.114.001 1.114.837s.767 1.115.558.139c-.209-.977.209-1.255.489-1.743.278-.488.766-1.185 1.393-2.23.627-1.046 1.046-.559 1.812-.484.767.075.976-.074 1.534-.004.555.07 0-.697.21-1.463.207-.766.975-.628 1.742-.418s-.767-.977-1.046-1.603c-.28-.628-1.046 0-1.532-1.046-.492-1.045-1.177-1.721-1.805-1.815s.2 1.328-.288 2.094c-.49.767-1.24.647-2.009.647-.765 0-1.476-.647-.918-1.623.557-.975 1.62-.874 2.178-1.71S18 2.481 17.092 2.203c-.906-.28-1.994-.276-2.9.42-.907.696-2.846.914-3.613 1.192-.766.279-.904-.462-1.042-1.02-.063-.248-.345-.326-.743-.317a16.1 16.1 0 0 0-5.037 4.374c.21.717 1.231-.168 1.431-.368.21-.209 1.254.07 1.393.836.14.767.07 1.605-.208 2.302-.279.696.697 1.672 1.254 2.648.559.977 1.185.976 1.464.976s1.882.627 1.812 1.393c-.07.768 1.464 1.464 2.091 1.952.628.49 1.024.97 1.839 1.11s1.768 1.473 2.185 1.614c.321.107.864.62 1.192.779-.43.545-1.265 1.666-1.265 2.183 0 .698.91 1.796 1.26 2.074.347.278 1.348.49 1.555 1.185.21.697-.146 3.043-.772 3.67-.63.626-.858 2.108-.858 2.108s.222.481.963 0c.82-.53 2.192-2.042 2.74-2.37a18.5 18.5 0 0 0 3.038-2.297c.976-.905.622-1.54 1.111-2.444.488-.906 1.12-.865 1.955-1.63.837-.767.252-.615-.655-.965"/></svg>