<svg xmlns="http://www.w3.org/2000/svg" xmlns:xlink="http://www.w3.org/1999/xlink" id="Layer_1" viewBox="0 0 360 89.572"><defs><linearGradient id="linear-gradient" x1="17.054" x2="377.253" y1="44.788" y2="44.788" gradientUnits="userSpaceOnUse"><stop offset=".156" stop-color="#b9d98d"/><stop offset=".639" stop-color="#eb6e24"/><stop offset=".891" stop-color="#f16522"/><stop offset="1" stop-color="#ec4029"/></linearGradient><linearGradient xlink:href="#linear-gradient" id="linear-gradient1" x1="17.05" x2="377.249"/><linearGradient xlink:href="#linear-gradient" id="linear-gradient2" x1="17.05" x2="377.249" y1="44.785" y2="44.785"/><linearGradient xlink:href="#linear-gradient" id="linear-gradient3" x1="17.05" x2="377.249" y1="44.783" y2="44.783"/><linearGradient xlink:href="#linear-gradient" id="linear-gradient4" x1="17.05" x2="377.249" y1="44.781" y2="44.781"/><linearGradient xlink:href="#linear-gradient" id="linear-gradient5" x1="3.948" x2="364.147" y1="44.789" y2="44.789"/><linearGradient xlink:href="#linear-gradient" id="linear-gradient6" x1="3.948" x2="364.147" y1="44.791" y2="44.791"/><linearGradient xlink:href="#linear-gradient" id="linear-gradient7" x1="3.948" x2="364.147" y1="44.787" y2="44.787"/><linearGradient id="linear-gradient8" x1="-10.894" x2="52.788" y1="44.786" y2="44.786" gradientUnits="userSpaceOnUse"><stop offset=".109" stop-color="#f16522"/><stop offset=".401" stop-color="#eb6e24"/><stop offset="1" stop-color="#b9d98d"/></linearGradient><linearGradient id="linear-gradient9" x1="-56.112" x2="65.704" y1="45.109" y2="45.109" gradientUnits="userSpaceOnUse"><stop offset=".109" stop-color="#f16522"/><stop offset=".467" stop-color="#eb6e24"/><stop offset="1" stop-color="#b9d98d"/></linearGradient><style>.st10{fill:#0e1128;opacity:.26}</style></defs><path d="M115.092 67.724h-16.45V21.853h16.45q2.882.001 5.374 1.441 2.49 1.445 3.931 3.9 1.441 2.457 1.442 5.404v4.918q0 4.191-2.883 7.272 2.882 3.082 2.883 7.273v4.918q0 4.456-3.178 7.6-3.179 3.145-7.57 3.145m3.8-30.732v-3.935q0-1.768-1.245-3.045c-1.245-1.277-1.858-1.28-3.08-1.28h-13.236l4.193 2.425v10.159h9.044q1.833 0 3.08-1.245c1.246-1.245 1.244-1.858 1.244-3.08M101.33 48.26l4.193 2.424v10.16h9.044q1.832-.001 3.08-1.28c1.247-1.28 1.244-1.866 1.244-3.045v-3.935q0-1.832-1.245-3.08-1.246-1.243-3.08-1.244z" style="fill:url(#linear-gradient)"/><path d="M134.015 56.979V21.853h6.882V56.52q0 1.768 1.277 3.045c1.277 1.277 1.868 1.28 3.047 1.28l12.044-.004v6.879l-12.503.004q-4.456 0-7.6-3.145-3.147-3.145-3.147-7.6" style="fill:url(#linear-gradient1)"/><path d="M189.703 32.594v24.38q0 4.457-3.178 7.601t-7.57 3.145h-5.702q-4.456 0-7.6-3.145-3.147-3.145-3.147-7.6v-24.38q.001-2.948 1.442-5.404a10.8 10.8 0 0 1 3.9-3.9q2.457-1.441 5.405-1.442h5.702q4.391 0 7.57 3.145 3.178 3.148 3.178 7.6M178.43 28.73h-13.236l4.193 2.424v25.363q0 1.769 1.277 3.045c1.277 1.276 1.868 1.28 3.047 1.28h9.044V33.053q0-1.768-1.245-3.045c-1.245-1.277-1.858-1.28-3.08-1.28" style="fill:url(#linear-gradient2)"/><path d="M225.075 21.845v6.88l-24.508.004 4.193 2.424v25.363q0 1.769 1.278 3.045 1.278 1.279 3.047 1.28l15.99-.004v6.88l-16.45.003q-4.455 0-7.6-3.145-3.147-3.145-3.146-7.6V21.849z" style="fill:url(#linear-gradient3)"/><path d="M253.5 26.825v-4.98h6.948v7.797l-13.434 13.435h2.687q4.39 0 7.569 3.145 3.178 3.147 3.178 7.535v13.96H253.5V54.28q0-1.768-1.245-3.045c-1.245-1.277-1.858-1.28-3.08-1.28H235.94l4.193 2.425v15.335h-6.882v-45.87h6.882v18.348z" style="fill:url(#linear-gradient4)"/><path d="M269.952 67.725V21.854H286.4q4.39 0 7.57 3.145 3.176 3.146 3.177 7.6v8.325q0 4.455-3.178 7.6-3.18 3.145-7.569 3.145h-9.568v16.056zm15.925-22.936a4.3 4.3 0 0 0 2.195-.59q1.014-.589 1.572-1.572c.558-.983.557-1.376.557-2.162v-7.407q0-1.768-1.245-3.045-1.245-1.279-3.08-1.28H272.64l4.193 2.425v13.631z" style="fill:url(#linear-gradient5)"/><path d="M328.574 32.597v24.38q0 4.457-3.178 7.601-3.18 3.15-7.569 3.149h-5.702q-4.457 0-7.6-3.145-3.148-3.144-3.147-7.6V32.6q.001-2.948 1.441-5.403a10.8 10.8 0 0 1 3.9-3.9q2.458-1.441 5.406-1.442h5.702q4.39.001 7.57 3.14 3.176 3.147 3.177 7.601m-11.271-3.862h-13.237l4.193 2.424v25.364q0 1.768 1.278 3.045c1.278 1.277 1.867 1.28 3.047 1.28h9.043V33.06q0-1.769-1.245-3.045c-1.245-1.276-1.857-1.28-3.08-1.28" style="fill:url(#linear-gradient6)"/><path d="M349.843 67.723h-6.882V28.73h-10.157v-6.88H360v6.88h-14.35l4.193 2.425z" style="fill:url(#linear-gradient7)"/><path d="M19.094 7.498V.778c0-.43.348-.778.778-.778h2.838c.43 0 .778.349.778.778v6.72c0 .43-.348.779-.778.779h-2.838a.78.78 0 0 1-.778-.779m9.299.779h2.837c.43 0 .779-.349.779-.779V.778A.78.78 0 0 0 31.23 0h-2.837a.78.78 0 0 0-.778.778v6.72c0 .43.348.779.778.779M22.71 51.049c.43 0 .778-.349.778-.779V39.897a.78.78 0 0 0-.778-.779h-2.838a.78.78 0 0 0-.778.779V50.27c0 .43.348.779.778.779zm8.52 0c.43 0 .779-.349.779-.779V39.897a.78.78 0 0 0-.779-.779h-2.837a.78.78 0 0 0-.778.779V50.27c0 .43.348.779.778.779zm-8.52 30.365h-2.838a.78.78 0 0 0-.778.778v6.602c0 .43.348.778.778.778h2.838c.43 0 .778-.349.778-.778v-6.602a.78.78 0 0 0-.778-.778m8.52 0h-2.837a.78.78 0 0 0-.778.778v6.602c0 .43.348.778.778.778h2.837c.43 0 .779-.349.779-.778v-6.602a.78.78 0 0 0-.779-.778" style="fill:url(#linear-gradient8)"/><path d="M12.772 55.507h22.967c.418 0 .804-.223 1.012-.585l4.767-8.286.543-.944c.207-.36.207-.804 0-1.164l-.487-.846-4.823-8.384a1.17 1.17 0 0 0-1.012-.585H12.695a.78.78 0 0 1-.673-.388l-1.645-2.837a.778.778 0 0 1 .673-1.17h27.23l.01.002c.413.003.796.225 1.002.584l6.496 11.291 1.341 2.333c.208.36.208.804 0 1.164l-1.4 2.433-6.437 11.19c-.206.36-.588.581-1.003.585l-.009.001H11.127c-.6 0-.974-.65-.673-1.169l1.644-2.837a.78.78 0 0 1 .674-.388m49.653-1.971-4.512-7.844a1.17 1.17 0 0 1 0-1.164l4.512-7.844c.07-.122.082-.26.105-.395.044-.263.032-.531-.105-.77L49.582 13.195a1.17 1.17 0 0 0-1.012-.585H.78c-.6 0-.975.65-.674 1.169l1.646 2.837c.139.24.395.388.673.388h43.604c.418 0 .804.223 1.012.585L57.356 35.52c.207.36.207.804 0 1.164l-1.032 1.794-.269.467c-.384.668-1.242.728-1.769.252-.089-.08-.19-.14-.255-.252l-9.686-16.838a1.16 1.16 0 0 0-.953-.577c-.02-.001-.039-.008-.059-.008H5.948c-.6 0-.974.65-.673 1.169l1.645 2.837c.14.24.396.388.674.388h33.198c.017 0 .033.006.05.006.398.018.763.232.962.58l8.178 14.214 2.192 3.812c.208.36.208.804 0 1.164l-2.252 3.915-8.118 14.11c-.2.348-.564.562-.962.58-.017 0-.033.006-.05.006H7.673a.78.78 0 0 0-.673.388l-1.644 2.837a.778.778 0 0 0 .673 1.17h37.304c.02 0 .039-.008.059-.009.394-.02.755-.232.953-.577l9.686-16.837c.04-.071.11-.102.16-.16.51-.58 1.456-.55 1.864.16l.361.627.94 1.634c.207.36.207.804 0 1.164L47.041 72.63a1.17 1.17 0 0 1-1.012.586H2.508a.78.78 0 0 0-.674.388L.19 76.441a.778.778 0 0 0 .673 1.169H48.57c.418 0 .804-.223 1.012-.585L62.425 54.7c.13-.228.149-.483.114-.736-.02-.147-.038-.296-.114-.428" style="fill:url(#linear-gradient9)"/><path d="m39.292 59.316 6.438-11.191-4.212-1.49-4.767 8.286a1.17 1.17 0 0 1-1.012.586l2.55 4.393a1.17 1.17 0 0 0 1.003-.584M36.751 35.298l4.823 8.384 4.214-1.487-6.496-11.291a1.17 1.17 0 0 0-1.003-.584l-2.55 4.393c.418 0 .804.223 1.012.585M41.804 26.501l8.178 14.215 4.304-1.519c-.089-.08-.19-.14-.255-.252l-9.686-16.838a1.16 1.16 0 0 0-.953-.577l-2.55 4.392c.398.018.763.232.962.58M49.582 77.025 62.425 54.7c.13-.228.149-.483.114-.736v.102l-6.123-2.164.94 1.634c.207.36.207.804 0 1.164L47.041 72.63a1.17 1.17 0 0 1-1.012.586h-.01l2.551 4.394c.418 0 .804-.223 1.012-.585M47.041 17.588 57.356 35.52c.207.36.207.804 0 1.164l-1.032 1.794 6.206-2.19c.044-.262.032-.53-.105-.768L49.582 13.194a1.17 1.17 0 0 0-1.012-.585l-2.55 4.394h.01c.417 0 .803.223 1.011.585M44.345 68.112l9.686-16.837c.04-.071.11-.102.16-.16l-4.269-1.508-8.118 14.11c-.2.348-.564.562-.962.58l2.55 4.392c.394-.02.755-.232.953-.577" class="st10"/><path d="m47.13 44.528-1.342-2.333-4.214 1.487.487.846c.207.36.207.804 0 1.164l-.543.944 4.212 1.489 1.4-2.433c.207-.36.207-.804 0-1.164M56.055 38.945c-.384.668-1.242.728-1.769.252l-4.304 1.519 2.192 3.812c.208.36.208.804 0 1.164l-2.252 3.915 4.27 1.509c.51-.582 1.455-.551 1.863.159l.361.627 6.123 2.164v-.102c-.02-.147-.038-.296-.114-.428l-4.512-7.844a1.17 1.17 0 0 1 0-1.164l4.512-7.844c.07-.122.082-.26.105-.395l-6.206 2.19z" class="st10"/><path d="m47.13 44.528-1.342-2.333-4.214 1.487.487.846c.207.36.207.804 0 1.164l-.543.944 4.212 1.489 1.4-2.433c.207-.36.207-.804 0-1.164M56.055 38.945c-.384.668-1.242.728-1.769.252l-4.304 1.519 2.192 3.812c.208.36.208.804 0 1.164l-2.252 3.915 4.27 1.509c.51-.582 1.455-.551 1.863.159l.361.627 6.123 2.164v-.102c-.02-.147-.038-.296-.114-.428l-4.512-7.844a1.17 1.17 0 0 1 0-1.164l4.512-7.844c.07-.122.082-.26.105-.395l-6.206 2.19z" class="st10"/></svg>